#N canvas 0 50 450 300 8;
#X obj 0 0 pad 96 134 255 255 255;
#X obj 99 -1 pad 97 119 255 255 255;
#X obj 99 -1 cnv 15 97 119 empty empty empty 20 12 0 14 #a8a8a8 #373737 0;
#X obj 179 -1 hradio 17 1 0 1 empty empty empty 0 -8 0 10 #e4e4e4 #a8a8a8 #373737 0;
#X obj 179 16 hradio 17 1 0 1 empty empty empty 0 -8 0 10 #e4e4e4 #a8a8a8 #373737 0;
#X obj 179 33 hradio 17 1 0 1 empty empty empty 0 -8 0 10 #e4e4e4 #a8a8a8 #373737 0;
#X obj 179 50 hradio 17 1 0 1 empty empty empty 0 -8 0 10 #e4e4e4 #a8a8a8 #373737 0;
#X obj 179 67 hradio 17 1 0 1 empty empty empty 0 -8 0 10 #e4e4e4 #a8a8a8 #373737 0;
#X obj 179 84 hradio 17 1 0 1 empty empty empty 0 -8 0 10 #e4e4e4 #a8a8a8 #373737 0;
#X obj 179 101 hradio 17 1 0 1 empty empty empty 0 -8 0 10 #e4e4e4 #a8a8a8 #373737 0;
#X obj -1 -1 cnv 15 97 136 empty empty empty 20 12 0 14 #a8a8a8 #373737 0;
#X obj 0 17 cnv 15 95 15 empty Dropdown0 Ionian 0 8 0 11 #e4e4e4 #373737 0;
#X obj -101 429 s \$1;
#X obj -111 309 loadbang, f 17;
#X obj -111 349 canvas.name;
#X obj -81 259 sel 0;
#X obj 0 34 cnv 15 95 15 empty Dropdown1 Dorian 0 8 0 11 #e4e4e4 #373737 0;
#X obj 0 51 cnv 15 95 15 empty Dropdown2 Phrygian 0 8 0 11 #e4e4e4 #373737 0;
#X obj 0 68 cnv 15 95 15 empty Dropdown3 Lydian 0 8 0 11 #e4e4e4 #373737 0;
#X obj 0 85 cnv 15 95 15 empty Dropdown4 Mixolydian 0 8 0 11 #e4e4e4 #373737 0;
#X obj 0 102 cnv 15 95 15 empty Dropdown5 Aeolian 0 8 0 11 #e4e4ff #373737 0;
#X obj 0 119 cnv 15 95 15 empty Dropdown6 Locrian 0 8 0 11 #e4e4e4 #373737 0;
#X text -569 -113 donecanvasdialog <xUnits> <yUnits> <GOP:0 \, 1 \, 2(GOP+Hide Name)> <xFrom> <yFrom> <xTo> <yTo> <xSize> <ySize> <xMargin> <yMargin>, f 68;
#X obj -171 229 outlet;
#X msg -431 349 donecanvasdialog 0 0 2 0 0 0 0 96 16 100 \$1;
#X obj 100 0 cnv 15 83 15 empty empty Ionian 0 8 0 11 #e4e4e4 #373737 0;
#X obj 100 17 cnv 15 83 15 empty empty Dorian 0 8 0 11 #e4e4e4 #373737 0;
#X obj 100 34 cnv 15 83 15 empty empty Phrygian 0 8 0 11 #e4e4e4 #373737 0;
#X obj 100 51 cnv 15 83 15 empty empty Lydian 0 8 0 11 #e4e4e4 #373737 0;
#X obj 100 68 cnv 15 83 15 empty empty Mixolydian 0 8 0 11 #e4e4e4 #373737 0;
#X obj 100 85 cnv 15 83 15 empty empty Aeolian 0 8 0 11 #e4e4e4 #373737 0;
#X obj 100 102 cnv 15 83 15 empty empty Locrian 0 8 0 11 #e4e4e4 #373737 0;
#X obj -221 289 * 17;
#X obj -201 199 f;
#X msg -571 59 \; Dropdown0 color #E4E4E4 \; Dropdown1 color #E4E4E4 \; Dropdown2 color #E4E4E4 \; Dropdown3 color #E4E4E4 \; Dropdown4 color #E4E4E4 \; Dropdown5 color #E4E4E4 \; Dropdown6 color #E4E4E4 \; Dropdown\$1 color #E4E4FF;
#X obj 0 0 cnv 15 95 15 empty empty Select\ a\ mode: 0 8 0 11 #a8a8a8 #373737 0;
#X msg -1 349 donecanvasdialog 0 0 2 0 0 0 0 96 134 0 0;
#X obj 19558 19362 mousefilter;
#X obj 19558 19362 mouse;
#X obj 99 139 route list click;
#X obj -201 -51 route list click;
#X msg -201 -21 \$2, f 8;
#X obj 1449 289 rescale -in 0 118 7 0, f 28;
#X obj -201 139 spigot;
#X obj -141 79 t b b;
#X obj -201 109 f \$1;
#X obj -201 49 trunc;
#X obj -201 79 - 1;
#X obj -201 169 sel -1;
#X text -431 328 Collapse window;
#X text -1 328 Expand window, f 32;
#X obj 59 219 tgl 25 0 empty empty empty 17 7 0 10 #e4e4e4 #4d4d4d #373737 0 1;
#X obj -131 129 tgl 25 0 empty empty empty 17 7 0 10 #e4e4e4 #4d4d4d #373737 0 1;
#X obj 289 189 print 3;
#X msg -451 -41 \; Dropdown0 color #E4E4E4 \; Dropdown1 color #E4E4E4 \; Dropdown2 color #E4E4E4 \; Dropdown3 color #E4E4E4 \; Dropdown4 color #E4E4E4 \; Dropdown5 color #E4E4E4 \; Dropdown6 color #E4E4E4 \; Dropdown\$1 color #E4E4FF;
#X obj -261 109 sel -1;
#X obj -201 9 rescale -in 0 134 7.999 0, f 33;
#X obj 99 169 sel 1, f 18;
#X obj -91 169 sel 0, f 18;
#X text -1 -52 This is still unfinished \, but should work in plugdata and PD vanilla(+ELSE) just the same;
#X connect 0 0 40 0;
#X connect 1 0 39 0;
#X connect 13 0 14 0;
#X connect 14 0 12 1;
#X connect 15 0 32 0;
#X connect 15 1 36 0;
#X connect 24 0 12 0;
#X connect 32 0 24 0;
#X connect 33 0 32 0;
#X connect 33 0 23 0;
#X connect 33 0 34 0;
#X connect 36 0 12 0;
#X connect 39 1 57 0;
#X connect 40 0 41 0;
#X connect 40 1 44 0;
#X connect 40 1 58 0;
#X connect 41 0 56 0;
#X connect 43 0 48 0;
#X connect 44 0 52 0 32.................K....n....vB....J....TA....;
#X connect 44 1 45 0;
#X connect 45 0 43 0;
#X connect 46 0 47 0;
#X connect 47 0 45 0 32.................F.........fA.........r.....;
#X connect 47 0 55 0;
#X connect 48 1 33 0;
#X connect 51 0 15 0;
#X connect 52 0 43 1;
#X connect 55 1 54 0;
#X connect 56 0 46 0;
#X connect 57 0 51 0;
#X connect 58 0 51 0;
#X coords 0 0 1 1 96 16 2 100 85;
