#N canvas 827 239 527 327 12;
#N canvas 0 50 450 300 Scales2 0;
#X obj 99 -1 cnv 15 97 119 empty empty empty 20 12 0 14 #a8a8a8 #373737 0;
#X obj 179 -1 hradio 17 1 0 1 empty empty empty 0 -8 0 10 #e4e4e4 #a8a8a8 #373737 0;
#X obj 179 16 hradio 17 1 0 1 empty empty empty 0 -8 0 10 #e4e4e4 #a8a8a8 #373737 0;
#X obj 179 33 hradio 17 1 0 1 empty empty empty 0 -8 0 10 #e4e4e4 #a8a8a8 #373737 0;
#X obj 179 50 hradio 17 1 0 1 empty empty empty 0 -8 0 10 #e4e4e4 #a8a8a8 #373737 0;
#X obj 179 67 hradio 17 1 0 1 empty empty empty 0 -8 0 10 #e4e4e4 #a8a8a8 #373737 0;
#X obj 179 84 hradio 17 1 0 1 empty empty empty 0 -8 0 10 #e4e4e4 #a8a8a8 #373737 0;
#X obj 179 101 hradio 17 1 0 1 empty empty empty 0 -8 0 10 #e4e4e4 #a8a8a8 #373737 0;
#X obj -1 -1 cnv 15 97 170 empty empty empty 20 12 0 14 #a8a8a8 #373737 0;
#X obj 0 17 cnv 15 95 15 empty Dropdown0 Ionian 0 8 0 11 #e4e4e4 #373737 0;
#X obj -556 344 s \$1;
#X obj -531 284 loadbang;
#X obj -531 314 canvas.name;
#X obj -245 -16 sel 0;
#X text -526 72 Expand window when Toggle = 1;
#X text -556 208 Collapse window when Toggle = 0;
#X obj 0 34 cnv 15 95 15 empty Dropdown1 Dorian 0 8 0 11 #e4e4e4 #373737 0;
#X obj 0 51 cnv 15 95 15 empty Dropdown2 Phrygian 0 8 0 11 #e4e4e4 #373737 0;
#X obj 0 68 cnv 15 95 15 empty Dropdown3 Lydian 0 8 0 11 #e4e4e4 #373737 0;
#X obj 0 85 cnv 15 95 15 empty Dropdown4 Mixolydian 0 8 0 11 #e4e4ff #373737 0;
#X obj 0 102 cnv 15 95 15 empty Dropdown5 Aeolian 0 8 0 11 #e4e4e4 #373737 0;
#X obj 0 119 cnv 15 95 15 empty Dropdown6 Locrian 0 8 0 11 #e4e4e4 #373737 0;
#X text -439 -133 donecanvasdialog <xUnits> <yUnits> <GOP:0 \, 1 \, 2(GOP+Hide Name)> <xFrom> <yFrom> <xTo> <yTo> <xSize> <ySize> <xMargin> <yMargin>, f 68;
#X obj -81 -5 f 0;
#X obj -82 21 f 1;
#X obj -82 47 f 2;
#X obj -82 73 f 3;
#X obj -82 99 f 4;
#X obj -82 125 f 5;
#X obj -82 151 f 6;
#X msg -136 -91 0;
#X obj -162 314 outlet;
#X obj 0 17 pic 0 dropdown.png empty ReloadPic 0 0;
#X obj 2 34 pic 0 dropdown.png empty ReloadPic 0 0;
#X obj 2 51 pic 0 dropdown.png empty ReloadPic 0 0;
#X obj 2 68 pic 0 dropdown.png empty ReloadPic 0 0;
#X obj 2 85 pic 0 dropdown.png empty ReloadPic 0 0;
#X obj -1 102 pic 0 dropdown.png empty ReloadPic 0 0;
#X obj 2 120 pic 0 dropdown.png empty ReloadPic 0 0;
#X obj -46 -61 tgl 25 0 empty empty empty 17 7 0 10 #e4e4e4 #4d4d4d #373737 0 1;
#X msg -556 224 donecanvasdialog 0 0 2 0 0 0 0 96 16 100 \$1;
#X obj 100 0 cnv 15 83 15 empty empty Ionian 0 8 0 11 #e4e4e4 #373737 0;
#X obj 100 17 cnv 15 83 15 empty empty Dorian 0 8 0 11 #e4e4e4 #373737 0;
#X obj 100 34 cnv 15 83 15 empty empty Phrygian 0 8 0 11 #e4e4e4 #373737 0;
#X obj 100 51 cnv 15 83 15 empty empty Lydian 0 8 0 11 #e4e4e4 #373737 0;
#X obj 100 68 cnv 15 83 15 empty empty Mixolydian 0 8 0 11 #e4e4e4 #373737 0;
#X obj 100 85 cnv 15 83 15 empty empty Aeolian 0 8 0 11 #e4e4e4 #373737 0;
#X obj 100 102 cnv 15 83 15 empty empty Locrian 0 8 0 11 #e4e4e4 #373737 0;
#X obj 100 0 pic 0 dropdown.png empty ReloadPic 0 0;
#X obj 100 17 pic 0 dropdown.png empty ReloadPic 0 0;
#X obj 100 34 pic 0 dropdown.png empty ReloadPic 0 0;
#X obj 100 51 pic 0 dropdown.png empty ReloadPic 0 0;
#X obj 100 68 pic 0 dropdown.png empty ReloadPic 0 0;
#X obj 100 85 pic 0 dropdown.png empty ReloadPic 0 0;
#X obj 100 103 pic 0 dropdown.png empty ReloadPic 0 0;
#X obj -556 149 * 17;
#X obj -162 118 f;
#X msg -91 209 \; Dropdown0 color #E4E4E4 \; Dropdown1 color #E4E4E4 \; Dropdown2 color #E4E4E4 \; Dropdown3 color #E4E4E4 \; Dropdown4 color #E4E4E4 \; Dropdown5 color #E4E4E4 \; Dropdown6 color #E4E4E4 \; Dropdown\$1 color #E4E4FF;
#X obj 0 0 cnv 15 95 15 empty empty Select\ a\ mode: 0 8 0 11 #a8a8a8 #373737 0;
#X msg -526 89 donecanvasdialog 0 0 2 0 0 0 0 96 134 0 0;
#X obj -1 0 pic 0 dropdown.png empty ReloadPic 0 0;
#X obj 19558 19362 mousefilter;
#X obj 19558 19362 mouse;
#X text 59 -47 [pic] + transparent image = invisible trigger;
#X connect 11 0 12 0;
#X connect 12 0 10 1;
#X connect 13 0 55 0;
#X connect 13 1 59 0;
#X connect 23 0 56 0;
#X connect 24 0 56 0;
#X connect 25 0 56 0;
#X connect 26 0 56 0;
#X connect 27 0 56 0;
#X connect 28 0 56 0;
#X connect 29 0 56 0;
#X connect 30 0 39 0;
#X connect 32 0 23 0;
#X connect 32 0 30 0;
#X connect 33 0 24 0;
#X connect 33 0 30 0;
#X connect 34 0 25 0;
#X connect 34 0 30 0;
#X connect 35 0 26 0;
#X connect 35 0 30 0;
#X connect 36 0 27 0;
#X connect 36 0 30 0;
#X connect 37 0 28 0;
#X connect 37 0 30 0;
#X connect 38 0 29 0;
#X connect 38 0 30 0;
#X connect 39 0 13 0;
#X connect 40 0 10 0;
#X connect 48 0 39 0;
#X connect 49 0 39 0;
#X connect 50 0 39 0;
#X connect 51 0 39 0;
#X connect 52 0 39 0;
#X connect 53 0 39 0;
#X connect 54 0 39 0;
#X connect 55 0 40 0;
#X connect 56 0 55 0;
#X connect 56 0 57 0;
#X connect 56 0 31 0;
#X connect 59 0 10 0;
#X connect 60 0 39 0;
#X coords 0 0 1 1 96 16 2 100 68;
#X restore 74 14 pd Scales2;
#X obj 194 120 s ReloadPic;
#X msg 194 89 open dropdown.png;
#X text 194 14 Use in case the picture got unloaded:;
#X obj 14 -122 note 59 14 Inter empty 1 255 12 0 0 255 200 200 1 0 Warning!;
#X obj 14 -106 note 0 14 Inter empty 0 55 55 55 0 228 228 228 0 0 This is not necessarily optimized! I'm using non-local Symbols for sending and receiving. The Ui elements are optimized solely for the 'use squared object corners' theme option.;
#X obj 194 44 bng 25 250 50 0 empty empty empty 17 7 0 10 #e4e4e4 #4d4d4d #373737;
#X obj 14 14 vradio 20 1 0 7 empty empty empty 0 -8 0 10 #e4e4e4 #4d4d4d #373737 0;
#X text 74 -2 Mode;
#X obj 5 -83 note 0 14 Inter empty 0 55 55 55 0 228 228 228 0 0 In addition\\\, this method is older and will only work in plugdata.   See the other dropdown project for an improved method.;
#X connect 0 0 7 0;
#X connect 2 0 1 0;
#X connect 6 0 2 0;
